<?xml version="1.0" encoding="utf-8"?>
<!-- Generator: Adobe Illustrator 19.2.1, SVG Export Plug-In . SVG Version: 6.00 Build 0)  -->
<svg version="1.1" id="Layer_1" xmlns="http://www.w3.org/2000/svg" xmlns:xlink="http://www.w3.org/1999/xlink" x="0px" y="0px"
	 viewBox="0 0 144 144" style="enable-background:new 0 0 144 144;" xml:space="preserve">
<style type="text/css">
	.st0{fill:#009149;}
</style>
<g>
	<path class="st0" d="M16.7,16.7h110.6v27.1c5.5-1.6,11-3,16.7-4V0H0v42.8c5.6,0.2,11.2,0.6,16.7,1.3V16.7z"/>
	<path class="st0" d="M0.1,94v16.7c29.7,1.3,56.5,13.8,76.4,33.3H99C75.6,114.7,40.1,95.5,0.1,94"/>
	<path class="st0" d="M0.1,61.3V78c49.4,1.7,92.8,27.5,118.8,66h25v-17.8c-4.5,1.5-8.9,3.3-13.2,5.5c-3.3-4.6-6.8-9.1-10.5-13.4
		c7.5-4,15.5-7,23.7-9.3V91.9c-12.5,2.9-24.5,7.6-35.7,14c-4.1-3.9-8.4-7.5-12.9-10.9c15-9.4,31.4-16,48.7-19.6v-17
		c-22.8,4.2-44.3,13.2-63.6,26.5C56.7,70.7,29.4,62.3,0.1,61.3"/>
	<path class="st0" d="M0.1,144h51.3c-14.8-10.1-32.4-16.3-51.3-17.3V144z"/>
</g>
</svg>
