<?xml version="1.0" encoding="utf-8"?>
<!-- Generator: Adobe Illustrator 19.2.1, SVG Export Plug-In . SVG Version: 6.00 Build 0)  -->
<svg id="Layer_1" xmlns="http://www.w3.org/2000/svg" viewBox="0 0 676.3 87.9"><style>.st0{fill:#008a44}</style><path class="st0" d="M0 21.7c2.9.1 5.7.3 8.5.7V8.5h56v13.7c2.8-.8 5.6-1.5 8.5-2V0H0v21.7zm.1 25.9v8.5c15 .7 28.6 7 38.7 16.9h11.4C38.3 58.1 20.3 48.4.1 47.6z"/><path class="st0" d="M.1 31.1v8.4c25 .9 47 13.9 60.2 33.4H73v-9c-2.3.8-4.5 1.7-6.7 2.8-1.7-2.4-3.4-4.6-5.3-6.8 3.8-2 7.9-3.6 12-4.7v-8.7c-6.3 1.5-12.4 3.9-18.1 7.1-2.1-2-4.3-3.8-6.6-5.5 7.6-4.8 15.9-8.1 24.6-9.9v-8.6C61.4 31.7 50.5 36.2 40.7 43 28.7 35.8 14.9 31.5.1 31.1zM.1 73h26c-7.5-5.1-16.4-8.3-26-8.8V73z"/><path d="M136.4 50.6c3.7-1.7 5.3-5.6 5.3-9.2 0-3.7-1.8-7.3-5-9.4-2.9-1.9-6.5-2.4-10-2.4h-17.3v43.5h17.3c4.2 0 8.2-.4 11.6-2.9 3.1-2.4 4.4-5.9 4.4-9.7-.1-4.2-2.2-8-6.3-9.9zm-19.2-14.2h9.7c3.6 0 6.7 1.3 6.7 5.5 0 4.1-3 5.4-6.5 5.4h-9.9V36.4zM127 66h-9.7V53.9h10c4.2 0 7.4 1.7 7.4 6.3-.1 4.4-4.1 5.8-7.7 5.8zm28.9-9c0-5.1 2.8-9 8.2-9 .9 0 1.8.1 2.6.3V41c-.8-.1-1.6-.2-2.4-.2-3.7 0-7.5 1.5-9 5.2l-.7-4.8h-6.5V73h7.7l.1-16zm14.6-28.1h8.2v7.9h-8.2zm.3 12.3h7.8V73h-7.8zm35.7 28.3l.5 3.5h6.6V28.8H206v14.6c-1.3-1.7-4.3-3-8.3-3-3.2 0-5.8 1-7.8 2.6-3.8 3.1-5.7 8-5.7 14.2 0 6 1.8 10.8 5.6 13.9 2 1.6 4.6 2.7 7.8 2.7 3.5-.1 7-1.4 8.9-4.3zm-7.4-2.2c-2.4 0-4-1.1-5.1-2.5-1.6-2.1-2-5-2-7.8s.4-5.6 2-7.7c1.1-1.4 2.8-2.5 5.1-2.5 6 0 7.2 5.6 7.2 10.2s-1.2 10.3-7.2 10.3zm19.9 11c0 3 1.4 5.3 3.9 7 3.3 2.3 7.4 2.6 11.3 2.6 7.1 0 15.4-2.3 15.4-10.6 0-3.1-1.1-5.8-3.9-7.7-3-2.1-7.2-2.1-10.3-2.1H230c-1.6 0-3.5-.4-3.5-2.3 0-1 .9-1.8 1.6-2.3 1.6.6 3.4.9 5.1.9 6.9 0 13-4.3 13-11.6 0-2.1-.6-4-1.7-5.8.5-1.5 2.1-2 3.9-2 .2 0 .4.1.6.1v-5.9c-.5-.1-1.6-.1-2.1-.1-2.7 0-5.1 1.2-6.5 4-2.1-1.2-4.6-2-7.2-2-7.2 0-13 4.1-13 11.7 0 3.2 1.2 5.9 3.2 7.8-2.6 1.6-3.8 3.7-3.8 6.4 0 2.1 1.2 4.3 3.2 5.4-2.5 1.2-3.8 3.7-3.8 6.5zm14.2-32.2c3.5 0 5.6 2.5 5.6 5.9s-2.1 5.9-5.6 5.9-5.6-2.4-5.6-5.9 2.1-5.9 5.6-5.9zm-4.6 27.4h6c2.9 0 7.6 0 7.6 3.9 0 4.2-5.4 4.4-8.4 4.4s-8-.4-8-4.4c0-2 1.2-3.4 2.8-3.9zm47.7-4.2c1.2-1.5 2.5-4 2.7-5.9h-7.3c-.3 1.2-.9 2-1.5 2.7-1.1 1.1-2.4 1.5-4.7 1.5-2.1 0-3.6-.9-4.7-2-1.5-1.5-2.4-3.8-2.3-6.2h21.3c0-.7.1-2.1.1-2.1.1-4-.4-7.6-2.8-11.1-2.6-4-6.9-5.9-11.6-5.9-4.3 0-7.8 1.6-10.2 4-3.1 3.1-4.6 7.7-4.6 12.7 0 5.2 1.7 9.7 4.9 12.7 2.5 2.4 5.7 3.9 10 3.9 4 .2 8-1.1 10.7-4.3zM260 48.9c1.1-1.5 3-2.4 5.3-2.4 2.2 0 3.8.7 4.8 1.8 1.2 1.3 1.9 3.2 2 5.6h-13.8c.1-2.1.6-3.6 1.7-5zm50.2 14.2c0-5-3.7-8.2-8.7-9-3.1-.5-3.9-.6-6.8-.9-1.7-.2-3.7-.9-3.7-3.2 0-1.7 1.1-2.8 2.4-3.4 1.2-.5 2.2-.5 3.3-.5 1.6 0 3.2.6 4.2 1.5.7.8 1.3 1.8 1.3 3h7.3c0-2.3-1.1-4.7-2.8-6.5-2.3-2.5-6.2-3.7-10-3.7-4 0-7.3 1.2-9.7 3.2-1.9 1.7-3.2 3.9-3.2 7.2 0 4 2.9 7.6 7.3 8.5 2.8.6 6 .8 8.8 1.2 2 .3 3.2 1.5 3.2 3.4 0 3.5-3.9 4-6.5 4-2.2 0-3.6-.4-4.8-1.4-1-.8-1.7-2.3-1.7-3.7h-7.2c0 3 1.5 5.6 3.4 7.4 2.6 2.5 6.2 3.7 10.3 3.7 4.3 0 8.3-1.1 10.9-3.7 1.6-1.7 2.7-4 2.7-7.1zm36.7 9.5v-6.4c-2.1.2-3.4.3-5 .3-2.4 0-3.6-1-3.6-3.5V47.5h8v-6.3h-8v-8.1h-7.7v8.1H325v6.3h5.8v16.2c0 6.1 3.2 9.8 9.6 9.8 2.3-.1 4.4-.4 6.5-.9zm17.5 1.2c4.8 0 8.9-2.3 11.1-5 2.4-3 3.7-6.4 3.7-11.8s-1.3-8.8-3.7-11.8c-2.2-2.7-6.3-5-11.1-5s-8.9 2.3-11.1 5c-2.4 3-3.7 6.4-3.7 11.8s1.3 8.8 3.7 11.8c2.1 2.7 6.2 5 11.1 5zm-4.9-24.7c1-1.1 2.8-2 4.8-2 2.1 0 3.8.9 4.8 2 1.8 2 2.3 5 2.3 8s-.4 6-2.3 8c-1 1.1-2.8 2-4.8 2-2.1 0-3.8-.9-4.8-2-1.8-2-2.3-5-2.3-8s.5-6 2.3-8zm52.2-19.5h-17V73h7.8V57.5h9.2c10 0 15.3-5.6 15.3-14 0-8.3-5.3-13.9-15.3-13.9zm-.3 20.9h-8.9v-14h8.9c5.3 0 7.7 2.9 7.7 7-.1 4.2-2.4 7-7.7 7zm26.8-4.5l-.7-4.8H431V73h7.7V57c0-5.1 2.8-9 8.2-9 .9 0 1.8.1 2.6.3V41c-.8-.1-1.6-.2-2.4-.2-3.7 0-7.5 1.5-8.9 5.2zm28.5-5.6c-4.8 0-8.9 2.3-11.1 5-2.4 3-3.7 6.4-3.7 11.8s1.3 8.8 3.7 11.8c2.2 2.7 6.3 5 11.1 5s8.9-2.3 11.1-5c2.4-3 3.7-6.4 3.7-11.8s-1.3-8.8-3.7-11.8c-2.2-2.7-6.3-5-11.1-5zm4.8 24.7c-1 1.1-2.8 2-4.8 2-2.1 0-3.8-.9-4.8-2-1.8-2-2.3-5-2.3-8s.4-6 2.3-8c1-1.1 2.8-2 4.8-2 2.1 0 3.8.9 4.8 2 1.8 2 2.3 5 2.3 8s-.5 6-2.3 8zm32-10.9c-3.1-.5-3.9-.6-6.8-.9-1.7-.2-3.7-.9-3.7-3.2 0-1.7 1.1-2.8 2.4-3.4 1.2-.5 2.2-.5 3.3-.5 1.6 0 3.2.6 4.2 1.5.7.8 1.3 1.8 1.3 3h7.3c0-2.3-1.1-4.7-2.8-6.5-2.3-2.5-6.2-3.7-10-3.7-4 0-7.3 1.2-9.7 3.2-1.9 1.7-3.2 3.9-3.2 7.2 0 4 2.9 7.6 7.3 8.5 2.8.6 6 .8 8.8 1.2 2 .3 3.2 1.5 3.2 3.4 0 3.5-3.9 4-6.5 4-2.2 0-3.6-.4-4.8-1.4-1-.8-1.7-2.3-1.7-3.7h-7.2c0 3 1.5 5.6 3.4 7.4 2.6 2.5 6.2 3.7 10.3 3.7 4.3 0 8.3-1.1 10.9-3.7 1.7-1.7 2.8-3.9 2.8-7-.1-5.2-3.8-8.3-8.8-9.1zm38-11.1c-2-1.6-4.5-2.7-7.7-2.7-3.5 0-7 1.3-8.9 4.2l-.5-3.5h-6.6v44h7.7V70.7c1.5 1.8 4.5 3.1 8.3 3.1 3.2 0 5.8-1 7.8-2.6 3.8-3.1 5.7-8 5.7-14.2-.1-6-2-10.7-5.8-13.9zm-4.1 21.8c-1.1 1.4-2.8 2.5-5.1 2.5-6 0-7.2-5.6-7.2-10.2s1.2-10.3 7.2-10.3c2.4 0 4 1.1 5.1 2.5 1.6 2.1 2 5 2 7.8 0 2.7-.4 5.6-2 7.7zm28.4-24.5c-4.3 0-7.8 1.6-10.2 4-3.1 3.1-4.6 7.7-4.6 12.7 0 5.2 1.7 9.7 4.9 12.7 2.5 2.4 5.7 3.9 10 3.9 4 0 8-1.3 10.7-4.5 1.2-1.5 2.5-4 2.7-5.9H572c-.3 1.2-.9 2-1.5 2.7-1.1 1.1-2.4 1.5-4.7 1.5-2.1 0-3.6-.9-4.7-2-1.5-1.5-2.4-3.8-2.3-6.2h21.3c0-.7.1-2.1.1-2.1.1-4-.4-7.6-2.8-11.1-2.6-3.8-6.9-5.7-11.6-5.7zm-7.1 13.5c.1-2.1.6-3.5 1.7-5s3-2.4 5.3-2.4c2.2 0 3.8.7 4.8 1.8 1.2 1.3 1.9 3.2 2 5.6h-13.8zm34.2-7.9l-.7-4.8h-6.5V73h7.7V57c0-5.1 2.8-9 8.2-9 .9 0 1.8.1 2.6.3V41c-.8-.1-1.6-.2-2.4-.2-3.7 0-7.5 1.5-8.9 5.2zm15.4-4.8h7.8V73h-7.8zm-.3-12.3h8.2v7.9H608zM633.5 63V47.5h8v-6.3h-8v-8.1h-7.7v8.1H620v6.3h5.8v16.2c0 6.1 3.2 9.8 9.6 9.8 2.3 0 4.4-.3 6.5-.9v-6.4c-2.1.2-3.4.3-5 .3-2.3 0-3.4-1.1-3.4-3.5zm35-21.8l-8 23-8.3-23h-8.4L656.4 73l-1.8 4.5c-.8 1.9-2.3 2.4-3.7 2.4-1.7 0-2.3-.2-4.3-.6v6.4c1.7.4 3.4.8 5.9.8 5.6 0 8.2-3.8 9.8-8l14-37.3h-7.8z" fill="#FFFFFF"/></svg>
